/* XPM */
static char *kjumpingcube[] = {
/* columns rows colors chars-per-pixel */
"32 32 68 1 ",
"  c #2F3537",
". c #343A3B",
"X c #383D3F",
"o c #444949",
"O c #4D5453",
"+ c #525757",
"@ c #555A5A",
"# c #5B605F",
"$ c #5D6160",
"% c #626664",
"& c #646967",
"* c #666A69",
"= c #6B6F6C",
"- c #6D726E",
"; c #6E7271",
": c #727673",
"> c #777A76",
", c #777A78",
"< c #7B7E7B",
"1 c #7E817D",
"2 c #81837E",
"3 c #7D8380",
"4 c #828583",
"5 c #868985",
"6 c #8A8B86",
"7 c #8B8D89",
"8 c #8E918D",
"9 c #91938D",
"0 c #949691",
"q c #979B95",
"w c #989A96",
"e c #9B9E99",
"r c #9FA19C",
"t c #A2A49F",
"y c #A3A6A1",
"u c #A6ABA5",
"i c #A9ACA7",
"p c #AAAEA9",
"a c #AFB2AC",
"s c #B2B4AF",
"d c #B5B7B3",
"f c #B5B8B1",
"g c #B9BCB6",
"h c #BBBDB8",
"j c #BEC1BC",
"k c #C2C4BF",
"l c #C4C5C1",
"z c #C5C8C3",
"x c #CACCC7",
"c c #CCCECB",
"v c #CED1CC",
"b c #D2D4CF",
"n c #D4D6D1",
"m c #D6D9D2",
"M c #D9DCD6",
"N c #DCDED9",
"B c #DEE1DC",
"V c #E1E3DE",
"C c #E4E6E2",
"Z c #E7E8E5",
"A c #E9EAE6",
"S c #ECEDEA",
"D c #EFF0ED",
"F c #F0F1EE",
"G c #F3F4F2",
"H c #F8F8F7",
"J c #F9F9F8",
"K c None",
/* pixels */
"KKKKKKKKKKKKKKKKKKKKKKKKKKKKKKKK",
"KKKKKKKKKKKKKKKKKKKKKKKKKKKKKKKK",
"KKKKKKKKKKKKKKKKGGGKKKKKKKKKKKKK",
"KKKKKKKKKKKKKKKGGGGGKKKKKKKKKKKK",
"KKKKKKKKKKKKKKFJJGFGGKKKKKKKKKKK",
"KKKKKKKKKKKKVSJHGGGFHGKKKKKKKKKK",
"KKKKKKKKKKKnSJGFGGGFGGGKKKKKKKKK",
"KKKKKKKKKKcSJGFFGFFFGFGFKKKKKKKK",
"KKKKKKKKKzAGGSSSDDDDDDSDSKKKKKKK",
"KKKKKKKKjCGGSSSSSSSSSSACASKKKKKK",
"KKKKKKKlCFSSSZAS4X@cAZZCVCCKKKKK",
"KKKKKKlASSAACZCv.  1ZCCCBBBCKKKK",
"KKKKKKxSSSAZCCCZ7;<jCVVBBNBAVKKK",
"KKKKKKlNASACCCCCANBCVBBBNBCAxKKK",
"KKKKK9dlnZACVVVVCBBBBBMNNCSbiKKK",
"KKKKK9yeknCZCVBNBBBBMMMMCAmyKKKK",
"KKKKK9t$+jvCCVBBNNNNNmmBZmp9KKKK",
"KKKKK7t6@shcBVBNNmmmmmBCb&:6KKKK",
"KKKKKKe0rysgxMBMmNmmmMVb9O=KKKKK",
"KKKKKK52742&fknMmmmmmNvp*O1KKKKK",
"KKKKKK92o-:oefjvmmbmmxp:o$KKKKKK",
"KKKKKK4e4598tuigxcbbzi3O@KKKKKKK",
"KKKKKKK6862-8<.rgkzj17*#0KKKKKKK",
"KKKKKKKK1w=+1>=qafy;@;#KKKKKKKKK",
"KKKKKKKKK6w7589ty66&:=KKKKKKKKKK",
"KKKKKKKKKK,w2#10511@=KKKKKKKKKKK",
"KKKKKKKKKKK67>2111$-KKKKKKKKKKKK",
"KKKKKKKKKKKK6w2->1:KKKKKKKKKKKKK",
"KKKKKKKKKKKKK79715KKKKKKKKKKKKKK",
"KKKKKKKKKKKKKKKKKKKKKKKKKKKKKKKK",
"KKKKKKKKKKKKKKKKKKKKKKKKKKKKKKKK",
"KKKKKKKKKKKKKKKKKKKKKKKKKKKKKKKK"
};
